@startuml ConcluirPartido

State ConcluirPartido{ 

  State state1 as " "
  State state2 as " "

  [*] -[#green]-> state1

  note on link 
    <b>El sistema solicita
    * Resultado del partido
  end note

} 

[*] -[#green]-> ConcluirPartido

note on link
 <b>Usuario solicita
 Concluir partido
end note

state1 -[#gray]-> state2 
note on link
 <b>Usuario provee información
end note
state2 -[#green]-> [*] 

@enduml
