@startuml GestionarNotificaciones



State EnviarNotificaciones{ 

  State state1 as " "

  [*] -[#green]-> state1

  note on link 
    <b>El sistema permite enviar notificaciones
    * A alumnos particulares
    * A alumnos de un clúster
  end note
 
} 

State VerNotificacionesEnviadas{ 

  State state2 as " "

  [*] -[#green]-> state2

  note on link 
    <b>El sistema permite ver notificaciones 
    * De alumnos particulares
    * De alumnos de un clúster

    <b>El sistema permite filtrar
    * Por fecha
    * Por asunto
    * Por destino
  end note

} 

[*]-[#green]-> EnviarNotificaciones

note on link
 <b>Usuario requiere
 * Enviar notificaciones
end note

[*]-[#green]-> VerNotificacionesEnviadas

note on link
 <b>Usuario requiere
 * Ver notificaciones enviadas
end note

@enduml
