@startuml Detalle Caso de Uso Modificar Revista

State ModificarRevista {

    State  " " as vacio  
    State  " " as vacio2  
    State  " " as vacio3 

    [*] ---> vacio
    note on link
        **El sistema muestra **
        *Revista a Modificar
        *Campo disponibles para modificar
        **El sistema requiere **
        * Realizar cambios
    end note

    vacio -[#Green]-> vacio2
    note on link
        **El gestor realiza cambios **
    end note

    vacio -[#Red]-> vacio3
    note on link
        **El gestor no realiza cambios **
    end note


}

[*] --> ModificarRevista
note on link
    **Gestor Requiere **
    Modificar Revista
end note

ModificarRevista --> [*]

@enduml